
      <svg data-logo="logo" xmlns="http://www.w3.org/2000/svg" viewBox="0 0 198 42">
        <g id="logogram" transform="translate(0, 1) rotate(0) "><path d="M33.724 36.5809C37.7426 32.5622 40.0003 27.1118 40.0003 21.4286C40.0003 15.7454 37.7426 10.2949 33.724 6.27629C29.7054 2.25765 24.2549 1.02188e-06 18.5717 0C12.8885 -1.02188e-06 7.43807 2.25764 3.41943 6.27628L10.4905 13.3473C11.6063 14.4631 13.4081 14.4074 14.8276 13.7181C15.9836 13.1568 17.2622 12.8571 18.5717 12.8571C20.845 12.8571 23.0252 13.7602 24.6326 15.3677C26.2401 16.9751 27.1431 19.1553 27.1431 21.4286C27.1431 22.7381 26.8435 24.0167 26.2822 25.1727C25.5929 26.5922 25.5372 28.394 26.6529 29.5098L33.724 36.5809Z" fill="#297AFF"/><path d="M30 40H19.5098C17.9943 40 16.5408 39.398 15.4692 38.3263L1.67368 24.5308C0.60204 23.4592 0 22.0057 0 20.4902V10L30 40Z" fill="#34C2FF"/><path d="M10.7143 39.9999H4.28571C1.91878 39.9999 0 38.0812 0 35.7142V29.2856L10.7143 39.9999Z" fill="#34C2FF"/></g>
        <g id="logotype" transform="translate(46, 8)"><path fill="#000000" d="M23.82 6.12L8.84 6.12Q7.86 6.12 7.19 5.45Q6.53 4.79 6.53 3.81L6.53 3.81Q6.53 2.79 7.19 2.15Q7.86 1.50 8.84 1.50L8.84 1.50L23.82 1.50Q24.83 1.50 25.48 2.15Q26.13 2.79 26.13 3.81L26.13 3.81Q26.13 4.79 25.48 5.45Q24.83 6.12 23.82 6.12L23.82 6.12ZM16.33 26.35L16.33 26.35Q15.28 26.35 14.61 25.67Q13.95 24.98 13.95 23.93L13.95 23.93L13.95 3.88L18.74 3.88L18.74 23.93Q18.74 24.98 18.06 25.67Q17.38 26.35 16.33 26.35ZM31.41 26.35L31.41 26.35Q30.47 26.35 29.78 25.67Q29.10 24.98 29.10 24.00L29.10 24.00L29.10 2.76Q29.10 1.81 29.78 1.13Q30.47 0.45 31.41 0.45L31.41 0.45Q32.39 0.45 33.07 1.13Q33.76 1.81 33.76 2.76L33.76 2.76L33.76 12.07L32.71 11.65Q33.86 9.51 35.40 8.48Q36.94 7.45 38.97 7.45L38.97 7.45Q40.86 7.45 42.35 8.27Q43.84 9.09 44.68 10.70Q45.52 12.31 45.52 14.62L45.52 14.62L45.52 24.00Q45.52 24.98 44.85 25.67Q44.19 26.35 43.21 26.35L43.21 26.35Q42.23 26.35 41.56 25.67Q40.90 24.98 40.90 24.00L40.90 24.00L40.90 15.43Q40.90 13.78 40.00 12.79Q39.11 11.79 37.54 11.79L37.54 11.79Q36.34 11.79 35.49 12.30Q34.63 12.80 34.19 13.68Q33.76 14.55 33.76 15.60L33.76 15.60L33.76 24.00Q33.76 24.98 33.07 25.67Q32.39 26.35 31.41 26.35ZM52.59 26.35L52.59 26.35Q51.61 26.35 50.92 25.65Q50.24 24.95 50.24 24.00L50.24 24.00L50.24 9.93Q50.24 8.99 50.92 8.31Q51.61 7.63 52.59 7.63L52.59 7.63Q53.53 7.63 54.21 8.31Q54.90 8.99 54.90 9.93L54.90 9.93L54.90 24.00Q54.90 24.95 54.21 25.65Q53.53 26.35 52.59 26.35ZM52.55 5.84L52.55 5.84Q51.47 5.84 50.77 5.14Q50.07 4.44 50.07 3.14L50.07 3.14Q50.07 1.88 50.77 1.17Q51.47 0.45 52.55 0.45L52.55 0.45Q53.71 0.45 54.41 1.17Q55.11 1.88 55.11 3.14L55.11 3.14Q55.11 4.44 54.41 5.14Q53.71 5.84 52.55 5.84ZM62.11 26.35L62.11 26.35Q61.13 26.35 60.46 25.68Q59.80 25.02 59.80 24.00L59.80 24.00L59.80 9.93Q59.80 8.95 60.46 8.29Q61.13 7.63 62.11 7.63L62.11 7.63Q63.09 7.63 63.77 8.31Q64.45 8.99 64.45 9.93L64.45 9.93L64.45 12.07L63.51 11.65Q64.63 9.51 66.13 8.48Q67.64 7.45 69.70 7.45L69.70 7.45Q71.59 7.45 73.08 8.27Q74.57 9.09 75.41 10.70Q76.25 12.31 76.25 14.62L76.25 14.62L76.25 24.00Q76.25 25.02 75.58 25.68Q74.92 26.35 73.94 26.35L73.94 26.35Q72.92 26.35 72.26 25.68Q71.59 25.02 71.59 24.00L71.59 24.00L71.59 15.43Q71.59 13.78 70.72 12.79Q69.84 11.79 68.23 11.79L68.23 11.79Q67.04 11.79 66.20 12.30Q65.36 12.80 64.91 13.68Q64.45 14.55 64.45 15.60L64.45 15.60L64.45 24.00Q64.45 25.02 63.79 25.68Q63.12 26.35 62.11 26.35ZM83.28 26.35L83.28 26.35Q82.34 26.35 81.65 25.67Q80.97 24.98 80.97 24.00L80.97 24.00L80.97 2.76Q80.97 1.81 81.65 1.13Q82.34 0.45 83.28 0.45L83.28 0.45Q84.26 0.45 84.94 1.13Q85.63 1.81 85.63 2.76L85.63 2.76L85.63 24.00Q85.63 24.98 84.94 25.67Q84.26 26.35 83.28 26.35ZM83.88 21.31L83.88 15.32L92.66 8.18Q93.29 7.66 94.17 7.66L94.17 7.66Q95.15 7.66 95.81 8.32Q96.48 8.99 96.48 9.93L96.48 9.93Q96.48 11.05 95.64 11.75L95.64 11.75L83.88 21.31ZM94.55 26.35L94.55 26.35Q93.99 26.35 93.48 26.07Q92.98 25.79 92.66 25.34L92.66 25.34L86.75 16.73L90.32 13.92L96.44 22.68Q96.90 23.27 96.90 24.00L96.90 24.00Q96.90 24.98 96.21 25.67Q95.53 26.35 94.55 26.35ZM102.71 26.35L102.71 26.35Q101.76 26.35 101.08 25.67Q100.40 24.98 100.40 24.00L100.40 24.00L100.40 9.93Q100.40 8.99 101.10 8.31Q101.80 7.63 102.81 7.63L102.81 7.63Q103.86 7.63 104.46 8.32Q105.05 9.02 105.05 9.97L105.05 9.97L105.05 11.58L104.39 11.19Q104.77 10.35 105.40 9.48Q106.03 8.60 106.94 8.03Q107.85 7.45 108.94 7.45L108.94 7.45Q110.06 7.45 110.74 8.06Q111.42 8.67 111.42 9.76L111.42 9.76Q111.42 10.70 110.70 11.39Q109.99 12.07 108.87 12.07L108.87 12.07Q107.54 12.07 106.70 12.56Q105.86 13.05 105.45 13.91Q105.05 14.76 105.05 15.92L105.05 15.92L105.05 24.00Q105.05 24.98 104.37 25.67Q103.69 26.35 102.71 26.35ZM124.86 26.35L124.86 26.35Q123.88 26.35 123.29 25.79Q122.69 25.23 122.52 24.44Q122.34 23.66 122.59 23.02L122.59 23.02L130.22 2.86Q130.53 1.99 131.16 1.57Q131.79 1.15 132.70 1.15L132.70 1.15Q133.58 1.15 134.19 1.55Q134.80 1.95 135.12 2.86L135.12 2.86L142.71 23.02Q142.99 23.73 142.78 24.51Q142.57 25.30 141.97 25.82Q141.38 26.35 140.47 26.35L140.47 26.35Q139.70 26.35 139.05 25.95Q138.41 25.55 138.16 24.84L138.16 24.84L132.07 6.15L133.22 6.15L127.17 24.84Q126.96 25.55 126.30 25.95Q125.63 26.35 124.86 26.35ZM138.27 20.40L126.65 20.40L126.65 16.06L138.27 16.06L138.27 20.40ZM148.34 26.35L148.34 26.35Q147.37 26.35 146.68 25.65Q146 24.95 146 24.00L146 24.00L146 9.93Q146 8.99 146.68 8.31Q147.37 7.63 148.34 7.63L148.34 7.63Q149.29 7.63 149.97 8.31Q150.66 8.99 150.66 9.93L150.66 9.93L150.66 24.00Q150.66 24.95 149.97 25.65Q149.29 26.35 148.34 26.35ZM148.31 5.84L148.31 5.84Q147.23 5.84 146.53 5.14Q145.83 4.44 145.83 3.14L145.83 3.14Q145.83 1.88 146.53 1.17Q147.23 0.45 148.31 0.45L148.31 0.45Q149.47 0.45 150.17 1.17Q150.87 1.88 150.87 3.14L150.87 3.14Q150.87 4.44 150.17 5.14Q149.47 5.84 148.31 5.84Z"/></g>
        
      </svg>
    